<svg xmlns="http://www.w3.org/2000/svg" xmlns:xlink="http://www.w3.org/1999/xlink" id="icons__x28_128_x__x_128_x29_"
  version="1.1" width="512" height="512">
  <style id="style2">
    .st0 {
      fill: #453f3c
    }

    .st2 {
      opacity: .4;
      fill: #fff;
      enable-background: new
    }
  </style>
  <path class="st0" d="M264.787 0c-122 0-192 84.4-192 232 0 116.4 59.6 280 192 280s192-163.6 192-280c0-147.6-70-232-192-232zm72 48c4.4 0 8 3.6 8 8s-3.6 8-8 8-8-3.6-8-8 3.6-8 8-8zm0 32c4.4 0 8 3.6 8 8s-3.6 8-8 8-8-3.6-8-8 3.6-8 8-8zm0 36c6.8 0 12 5.2 12 12s-5.2 12-12 12-12-5.2-12-12 5.2-12 12-12zm-144-68c4.4 0 8 3.6 8 8s-3.6 8-8 8-8-3.6-8-8 3.6-8 8-8zm0 32c4.4 0 8 3.6 8 8s-3.6 8-8 8-8-3.6-8-8 3.6-8 8-8zm0 36c6.8 0 12 5.2 12 12s-5.2 12-12 12-12-5.2-12-12 5.2-12 12-12zm-88 168c0-4.4 3.6-8 8-8s8 3.6 8 8-3.6 8-8 8-8-3.6-8-8zm16 36c-4.4 0-8-3.6-8-8s3.6-8 8-8 8 3.6 8 8-3.6 8-8 8zm16-20c-4.4 0-8-3.6-8-8s3.6-8 8-8 8 3.6 8 8-3.6 8-8 8zm28 104c-4.4 0-8-3.6-8-8s3.6-8 8-8 8 3.6 8 8-3.6 8-8 8zm24-16c-4.4 0-8-3.6-8-8s3.6-8 8-8 8 3.6 8 8-3.6 8-8 8zm4-136c-22 0-40-14.4-40-32s18-32 40-32 40 14.4 40 32-18 32-40 32zm44 220c-6.8 0-12-5.2-12-12s5.2-12 12-12 12 5.2 12 12-5.2 12-12 12zm0-40c-6.8 0-12-5.2-12-12s5.2-12 12-12 12 5.2 12 12-5.2 12-12 12zm0-40c-6.8 0-12-5.2-12-12s5.2-12 12-12 12 5.2 12 12-5.2 12-12 12zm4-252c-6.8 0-12-5.2-12-12s5.2-12 12-12 12 5.2 12 12-5.2 12-12 12zm24 192c-6.8 0-12-3.6-12-8s5.2-8 12-8 12 3.6 12 8-5.2 8-12 8zm12-204c0-6.8 5.2-12 12-12s12 5.2 12 12-5.2 12-12 12-12-5.2-12-12zm16 344c-6.8 0-12-5.2-12-12s5.2-12 12-12 12 5.2 12 12-5.2 12-12 12zm0-40c-6.8 0-12-5.2-12-12s5.2-12 12-12 12 5.2 12 12-5.2 12-12 12zm0-40c-6.8 0-12-5.2-12-12s5.2-12 12-12 12 5.2 12 12-5.2 12-12 12zm48-4c-4.4 0-8-3.6-8-8s3.6-8 8-8 8 3.6 8 8-3.6 8-8 8zm24 16c-4.4 0-8-3.6-8-8s3.6-8 8-8 8 3.6 8 8-3.6 8-8 8zm-28-152c-22 0-40-14.4-40-32s18-32 40-32 40 14.4 40 32-18 32-40 32zm56 48c-4.4 0-8-3.6-8-8s3.6-8 8-8 8 3.6 8 8-3.6 8-8 8zm16 20c-4.4 0-8-3.6-8-8s3.6-8 8-8 8 3.6 8 8-3.6 8-8 8zm8-28c-4.4 0-8-3.6-8-8s3.6-8 8-8 8 3.6 8 8-3.6 8-8 8z"
    id="path4" fill="#453f3c" />
  <path d="M264.787 16c-107.6 0-176 72.4-176 216 0 112 56.4 264 176 264s176-152 176-264c0-143.6-68.4-216-176-216zm72 32c4.4 0 8 3.6 8 8s-3.6 8-8 8-8-3.6-8-8 3.6-8 8-8zm0 32c4.4 0 8 3.6 8 8s-3.6 8-8 8-8-3.6-8-8 3.6-8 8-8zm0 36c6.8 0 12 5.2 12 12s-5.2 12-12 12-12-5.2-12-12 5.2-12 12-12zm-144-68c4.4 0 8 3.6 8 8s-3.6 8-8 8-8-3.6-8-8 3.6-8 8-8zm0 32c4.4 0 8 3.6 8 8s-3.6 8-8 8-8-3.6-8-8 3.6-8 8-8zm0 36c6.8 0 12 5.2 12 12s-5.2 12-12 12-12-5.2-12-12 5.2-12 12-12zm-88 168c0-4.4 3.6-8 8-8s8 3.6 8 8-3.6 8-8 8-8-3.6-8-8zm16 36c-4.4 0-8-3.6-8-8s3.6-8 8-8 8 3.6 8 8-3.6 8-8 8zm16-20c-4.4 0-8-3.6-8-8s3.6-8 8-8 8 3.6 8 8-3.6 8-8 8zm28 104c-4.4 0-8-3.6-8-8s3.6-8 8-8 8 3.6 8 8-3.6 8-8 8zm24-16c-4.4 0-8-3.6-8-8s3.6-8 8-8 8 3.6 8 8-3.6 8-8 8zm4-136c-22 0-40-14.4-40-32s18-32 40-32 40 14.4 40 32-18 32-40 32zm44 220c-6.8 0-12-5.2-12-12s5.2-12 12-12 12 5.2 12 12-5.2 12-12 12zm0-40c-6.8 0-12-5.2-12-12s5.2-12 12-12 12 5.2 12 12-5.2 12-12 12zm0-40c-6.8 0-12-5.2-12-12s5.2-12 12-12 12 5.2 12 12-5.2 12-12 12zm4-252c-6.8 0-12-5.2-12-12s5.2-12 12-12 12 5.2 12 12-5.2 12-12 12zm24 192c-6.8 0-12-3.6-12-8s5.2-8 12-8 12 3.6 12 8-5.2 8-12 8zm12-204c0-6.8 5.2-12 12-12s12 5.2 12 12-5.2 12-12 12-12-5.2-12-12zm16 344c-6.8 0-12-5.2-12-12s5.2-12 12-12 12 5.2 12 12-5.2 12-12 12zm0-40c-6.8 0-12-5.2-12-12s5.2-12 12-12 12 5.2 12 12-5.2 12-12 12zm0-40c-6.8 0-12-5.2-12-12s5.2-12 12-12 12 5.2 12 12-5.2 12-12 12zm48-4c-4.4 0-8-3.6-8-8s3.6-8 8-8 8 3.6 8 8-3.6 8-8 8zm24 16c-4.4 0-8-3.6-8-8s3.6-8 8-8 8 3.6 8 8-3.6 8-8 8zm-28-152c-22 0-40-14.4-40-32s18-32 40-32 40 14.4 40 32-18 32-40 32zm56 48c-4.4 0-8-3.6-8-8s3.6-8 8-8 8 3.6 8 8-3.6 8-8 8zm16 20c-4.4 0-8-3.6-8-8s3.6-8 8-8 8 3.6 8 8-3.6 8-8 8zm8-28c-4.4 0-8-3.6-8-8s3.6-8 8-8 8 3.6 8 8-3.6 8-8 8z"
    id="path6" fill="#e2e0e0" />
  <path class="st2" d="M140.787 76c28.8-34 71.6-52 124-52 52.4 0 95.2 18 124 52 30.4 36 44 88 44 156h8c0-143.6-68.4-216-176-216s-176 72.4-176 216h8c0-68 13.6-120 44-156z"
    id="path8" opacity=".4" fill="#fff" />
  <path d="M392.787 400c-22 39.2-63.6 88-128 88s-106-48.8-128-88c-26.4-47.2-40-108.8-40-168h-8c0 112 56.4 264 176 264s176-152 176-264h-8c0 59.2-13.6 120.8-40 168z"
    id="path10" opacity=".14" />
  <path d="M248.787 276l-76 64-12-8zm32 0l76 64 12-8zm-88-116l72 8 72-8-72 24z" id="path12" fill="#ed7161" />
  <defs id="defs15">
    <path id="SVGID_1_" d="M192 488C77.6 488 24 341.2 24 232.8 24 94 89.2 24 192 24s168 70 168 208.8C360 341.2 306.4 488 192 488z" />
  </defs>
  <clipPath id="SVGID_2_">
    <use xlink:href="#SVGID_1_" overflow="visible" id="use17" x="0" y="0" width="100%" height="100%" />
  </clipPath>
  <g clip-path="url(#SVGID_2_)" id="g22" transform="translate(72.787)">
    <path class="st2" d="M232 28h8v160h-8zm16 0h4v160h-4z" id="path20" opacity=".4" fill="#fff" />
  </g>
  <defs id="defs25">
    <path id="SVGID_3_" d="M192 488C77.6 488 24 341.2 24 232.8 24 94 89.2 24 192 24s168 70 168 208.8C360 341.2 306.4 488 192 488z" />
  </defs>
  <clipPath id="SVGID_4_">
    <use xlink:href="#SVGID_3_" overflow="visible" id="use27" x="0" y="0" width="100%" height="100%" />
  </clipPath>
  <g clip-path="url(#SVGID_4_)" id="g32" transform="translate(72.787)">
    <path class="st2" d="M232 248h8v240h-8zm16 0h4v240h-4z" id="path30" opacity=".4" fill="#fff" />
  </g>
  <g id="g36" transform="translate(72.787)">
    <path class="st0" d="M120 260c-26.4 0-48-18-48-40s21.6-40 48-40 48 18 48 40-21.6 40-48 40zm0-64c-17.6 0-32 10.8-32 24s14.4 24 32 24 32-10.8 32-24-14.4-24-32-24zm144 64c-26.4 0-48-18-48-40s21.6-40 48-40 48 18 48 40-21.6 40-48 40zm0-64c-17.6 0-32 10.8-32 24s14.4 24 32 24 32-10.8 32-24-14.4-24-32-24z"
      id="path34" fill="#453f3c" />
  </g>
  <g id="g40" transform="translate(72.787)">
    <path class="st0" d="M120 144c-8.8 0-16-7.2-16-16s7.2-16 16-16 16 7.2 16 16-7.2 16-16 16zm0-24c-4.4 0-8 3.6-8 8s3.6 8 8 8 8-3.6 8-8-3.6-8-8-8zm48 24c-8.8 0-16-7.2-16-16s7.2-16 16-16 16 7.2 16 16-7.2 16-16 16zm0-24c-4.4 0-8 3.6-8 8s3.6 8 8 8 8-3.6 8-8-3.6-8-8-8zm48 24c-8.8 0-16-7.2-16-16s7.2-16 16-16 16 7.2 16 16-7.2 16-16 16zm0-24c-4.4 0-8 3.6-8 8s3.6 8 8 8 8-3.6 8-8-3.6-8-8-8zm48 24c-8.8 0-16-7.2-16-16s7.2-16 16-16 16 7.2 16 16-7.2 16-16 16zm0-24c-4.4 0-8 3.6-8 8s3.6 8 8 8 8-3.6 8-8-3.6-8-8-8z"
      id="path38" fill="#453f3c" />
  </g>
  <g id="g44" transform="translate(72.787)">
    <path class="st0" d="M120 100c-6.8 0-12-5.2-12-12s5.2-12 12-12 12 5.2 12 12-5.2 12-12 12zm0-16c-2.4 0-4 1.6-4 4s1.6 4 4 4 4-1.6 4-4-1.6-4-4-4zm0-16c-6.8 0-12-5.2-12-12s5.2-12 12-12 12 5.2 12 12-5.2 12-12 12zm0-16c-2.4 0-4 1.6-4 4s1.6 4 4 4 4-1.6 4-4-1.6-4-4-4zm144 48c-6.8 0-12-5.2-12-12s5.2-12 12-12 12 5.2 12 12-5.2 12-12 12zm0-16c-2.4 0-4 1.6-4 4s1.6 4 4 4 4-1.6 4-4-1.6-4-4-4zm0-16c-6.8 0-12-5.2-12-12s5.2-12 12-12 12 5.2 12 12-5.2 12-12 12zm0-16c-2.4 0-4 1.6-4 4s1.6 4 4 4 4-1.6 4-4-1.6-4-4-4z"
      id="path42" fill="#453f3c" />
  </g>
  <g id="g48" transform="translate(72.787)">
    <path class="st0" d="M192 336c-8.8 0-16-5.2-16-12s7.2-12 16-12 16 5.2 16 12-7.2 12-16 12zm0-16c-4.8 0-8 2.4-8 4s3.2 4 8 4 8-2.4 8-4-3.2-4-8-4z"
      id="path46" fill="#453f3c" />
  </g>
  <g id="g52" transform="translate(72.787)">
    <path class="st0" d="M164 396c-8.8 0-16-7.2-16-16s7.2-16 16-16 16 7.2 16 16-7.2 16-16 16zm0-24c-4.4 0-8 3.6-8 8s3.6 8 8 8 8-3.6 8-8-3.6-8-8-8zm56 24c-8.8 0-16-7.2-16-16s7.2-16 16-16 16 7.2 16 16-7.2 16-16 16zm0-24c-4.4 0-8 3.6-8 8s3.6 8 8 8 8-3.6 8-8-3.6-8-8-8zm-56 64c-8.8 0-16-7.2-16-16s7.2-16 16-16 16 7.2 16 16-7.2 16-16 16zm0-24c-4.4 0-8 3.6-8 8s3.6 8 8 8 8-3.6 8-8-3.6-8-8-8zm56 24c-8.8 0-16-7.2-16-16s7.2-16 16-16 16 7.2 16 16-7.2 16-16 16zm0-24c-4.4 0-8 3.6-8 8s3.6 8 8 8 8-3.6 8-8-3.6-8-8-8zm-56 64c-8.8 0-16-7.2-16-16s7.2-16 16-16 16 7.2 16 16-7.2 16-16 16zm0-24c-4.4 0-8 3.6-8 8s3.6 8 8 8 8-3.6 8-8-3.6-8-8-8zm56 24c-8.8 0-16-7.2-16-16s7.2-16 16-16 16 7.2 16 16-7.2 16-16 16zm0-24c-4.4 0-8 3.6-8 8s3.6 8 8 8 8-3.6 8-8-3.6-8-8-8z"
      id="path50" fill="#453f3c" />
  </g>
  <g id="g56" transform="translate(72.787)">
    <path class="st0" d="M116 392c-6.8 0-12-5.2-12-12s5.2-12 12-12 12 5.2 12 12-5.2 12-12 12zm0-16c-2.4 0-4 1.6-4 4s1.6 4 4 4 4-1.6 4-4-1.6-4-4-4zm-24 32c-6.8 0-12-5.2-12-12s5.2-12 12-12 12 5.2 12 12-5.2 12-12 12zm0-16c-2.4 0-4 1.6-4 4s1.6 4 4 4 4-1.6 4-4-1.6-4-4-4zm176 0c-6.8 0-12-5.2-12-12s5.2-12 12-12 12 5.2 12 12-5.2 12-12 12zm0-16c-2.4 0-4 1.6-4 4s1.6 4 4 4 4-1.6 4-4-1.6-4-4-4zm24 32c-6.8 0-12-5.2-12-12s5.2-12 12-12 12 5.2 12 12-5.2 12-12 12zm0-16c-2.4 0-4 1.6-4 4s1.6 4 4 4 4-1.6 4-4-1.6-4-4-4z"
      id="path54" fill="#453f3c" />
  </g>
  <g id="g68" transform="translate(72.787)">
    <path class="st0" d="M64 304c-6.8 0-12-5.2-12-12s5.2-12 12-12 12 5.2 12 12-5.2 12-12 12zm0-16c-2.4 0-4 1.6-4 4s1.6 4 4 4 4-1.6 4-4-1.6-4-4-4zm-24 8c-6.8 0-12-5.2-12-12s5.2-12 12-12 12 5.2 12 12-5.2 12-12 12zm0-16c-2.4 0-4 1.6-4 4s1.6 4 4 4 4-1.6 4-4-1.6-4-4-4z"
      id="path58" fill="#453f3c" />
    <path class="st0" d="M48 324c-6.8 0-12-5.2-12-12s5.2-12 12-12 12 5.2 12 12-5.2 12-12 12zm0-16c-2.4 0-4 1.6-4 4s1.6 4 4 4 4-1.6 4-4-1.6-4-4-4z"
      id="path60" fill="#453f3c" />
    <g id="g66">
      <path class="st0" d="M320 304c-6.8 0-12-5.2-12-12s5.2-12 12-12 12 5.2 12 12-5.2 12-12 12zm0-16c-2.4 0-4 1.6-4 4s1.6 4 4 4 4-1.6 4-4-1.6-4-4-4zm24 8c-6.8 0-12-5.2-12-12s5.2-12 12-12 12 5.2 12 12-5.2 12-12 12zm0-16c-2.4 0-4 1.6-4 4s1.6 4 4 4 4-1.6 4-4-1.6-4-4-4z"
        id="path62" fill="#453f3c" />
      <path class="st0" d="M336 324c-6.8 0-12-5.2-12-12s5.2-12 12-12 12 5.2 12 12-5.2 12-12 12zm0-16c-2.4 0-4 1.6-4 4s1.6 4 4 4 4-1.6 4-4-1.6-4-4-4z"
        id="path64" fill="#453f3c" />
    </g>
  </g>
</svg>